<svg width="26" height="27" viewBox="0 0 26 27" fill="none" xmlns="http://www.w3.org/2000/svg">
<path d="M13.148 0.99936C13.0962 1.02351 13.0113 1.09111 12.9595 1.14906C12.8699 1.25047 12.8652 1.32291 12.8652 2.47707C12.8652 3.64572 12.8699 3.7085 12.9642 3.83888C13.1574 4.10449 13.5627 4.10449 13.756 3.83888C13.8502 3.7085 13.8549 3.63123 13.8691 2.60746C13.8879 1.46779 13.8596 1.23116 13.6947 1.08146C13.591 0.984873 13.2847 0.936582 13.148 0.99936Z" fill="#A6A6A6" fill-opacity="0.3" stroke="#A6A6A6" stroke-opacity="0.3" stroke-width="0.8"/>
<path d="M4.82222 4.57273C4.71854 4.6838 4.68555 4.76107 4.68555 4.90594C4.68555 5.13774 4.75624 5.23432 5.60456 6.16634C6.39161 7.02593 6.55185 7.09836 6.9006 6.72652C7.03256 6.58648 7.06555 6.51404 7.06555 6.35951C7.06555 6.176 7.03256 6.13737 6.21252 5.30193C5.37834 4.44717 5.35949 4.43269 5.16155 4.43269C5.00131 4.43269 4.93062 4.46166 4.82222 4.57273Z" fill="#A6A6A6" fill-opacity="0.3" stroke="#A6A6A6" stroke-opacity="0.3" stroke-width="0.8"/>
<path d="M20.4239 5.38377C19.8772 5.93912 19.5755 6.28199 19.5567 6.36891C19.5096 6.58622 19.6368 6.82768 19.8395 6.89528C20.1646 7.00635 20.2825 6.92909 21.1496 6.0357C21.9226 5.2389 21.9367 5.21958 21.9367 5.01676C21.9367 4.72701 21.7435 4.52901 21.4607 4.52901C21.2627 4.52901 21.2439 4.5435 20.4239 5.38377Z" fill="#A6A6A6" fill-opacity="0.3" stroke="#A6A6A6" stroke-opacity="0.3" stroke-width="0.8"/>
<path d="M12.5808 6.15178C10.903 6.41255 9.58341 7.0838 8.43347 8.26694C7.39664 9.33417 6.78868 10.4642 6.46821 11.9226C6.31268 12.6325 6.31268 14.0184 6.46821 14.7476C6.82638 16.4426 7.64642 17.8238 8.93775 18.9055C9.52214 19.3932 10.0076 20.1079 10.2291 20.8033C10.2951 21.0255 10.3139 21.3297 10.3422 22.7108C10.3705 24.2851 10.3752 24.3624 10.4836 24.6425C10.5637 24.8501 10.6721 25.0143 10.8794 25.2268C11.3319 25.6856 11.3413 25.6904 13.4574 25.6711L15.22 25.6566L15.4839 25.5214C15.795 25.3669 16.106 25.0433 16.2474 24.7246C16.3464 24.5121 16.3511 24.401 16.3794 22.8316C16.4029 21.4698 16.4218 21.1124 16.4878 20.8806C16.6951 20.1562 17.0627 19.5526 17.6141 19.0504C18.7641 18.0025 19.1552 17.5244 19.5935 16.6551C19.9046 16.0467 20.0978 15.4913 20.2486 14.8104C20.3429 14.3758 20.357 14.1778 20.357 13.3423C20.357 12.5069 20.3429 12.3089 20.2486 11.8743C19.6124 8.97199 17.5717 6.88098 14.7629 6.26285C14.334 6.16627 12.939 6.09866 12.5808 6.15178ZM14.5602 7.25765C15.729 7.50394 16.7281 8.03997 17.5293 8.84643C19.2118 10.5415 19.8103 12.9995 19.0846 15.2354C18.7028 16.4088 18.1703 17.1815 17.025 18.2101C16.1956 18.9586 15.5735 20.1031 15.4227 21.1752L15.3661 21.576L13.3584 21.5663L11.3554 21.5519L11.3177 21.2138C11.2094 20.2045 10.7239 19.2097 9.97929 18.4854C9.82848 18.3357 9.57399 18.099 9.40904 17.959C8.38163 17.0704 7.75482 15.9742 7.46262 14.5593C7.32123 13.8929 7.31181 12.8015 7.43906 12.2075C7.98104 9.66255 9.99814 7.62466 12.3687 7.23351C12.5619 7.20453 12.7552 7.17073 12.7929 7.16107C12.9672 7.11761 14.2209 7.18521 14.5602 7.25765ZM15.385 23.3869C15.385 24.3238 15.3425 24.4831 15.0786 24.599C14.9372 24.657 14.645 24.6666 13.2877 24.657L11.6712 24.6425L11.5487 24.5266C11.3837 24.3672 11.3319 24.0582 11.3319 23.2662V22.5901H13.3584H15.385V23.3869Z" fill="#A6A6A6" fill-opacity="0.3" stroke="#A6A6A6" stroke-opacity="0.3" stroke-width="0.8"/>
<path d="M13.1476 8.72561C12.8978 8.83185 12.7894 9.1554 12.9119 9.42584C13.0062 9.62383 13.1287 9.68178 13.5717 9.72041C15.3532 9.8846 16.7105 11.2754 16.8707 13.1008C16.9131 13.5547 16.965 13.6803 17.1629 13.7769C17.2996 13.8445 17.3656 13.8493 17.507 13.8058C17.818 13.7093 17.8604 13.6175 17.851 13.0573C17.8369 11.9225 17.3514 10.8359 16.4701 9.97153C16.0035 9.50793 15.5134 9.18921 14.9243 8.9719C14.2881 8.73527 13.4162 8.61454 13.1476 8.72561Z" fill="#A6A6A6" fill-opacity="0.3" stroke="#A6A6A6" stroke-opacity="0.3" stroke-width="0.8"/>
<path d="M1.64277 12.8211C1.38828 12.8743 1.21862 13.2992 1.35058 13.56C1.38357 13.6276 1.48725 13.7194 1.57679 13.7677C1.72289 13.8449 1.86428 13.8497 2.85869 13.8401C3.90495 13.8256 3.98036 13.8208 4.1076 13.7242C4.36681 13.5262 4.36681 13.1109 4.1076 12.9129C3.98036 12.8163 3.91438 12.8115 2.85869 12.8067C2.24602 12.8018 1.69462 12.8067 1.64277 12.8211Z" fill="#A6A6A6" fill-opacity="0.3" stroke="#A6A6A6" stroke-opacity="0.3" stroke-width="0.8"/>
<path d="M22.7561 12.8211C22.5016 12.8743 22.3319 13.2992 22.4639 13.56C22.4968 13.6276 22.6005 13.7194 22.6901 13.7677C22.8362 13.8449 22.9776 13.8497 23.972 13.8401C25.0182 13.8256 25.0936 13.8208 25.2209 13.7242C25.4801 13.5262 25.4801 13.1109 25.2209 12.9129C25.0936 12.8163 25.0277 12.8115 23.972 12.8067C23.3593 12.8018 22.8079 12.8067 22.7561 12.8211Z" fill="#A6A6A6" fill-opacity="0.3" stroke="#A6A6A6" stroke-opacity="0.3" stroke-width="0.8"/>
<path d="M6.42931 19.7745C6.39161 19.789 5.98159 20.185 5.52444 20.6534C4.69497 21.4937 4.68555 21.5033 4.68555 21.711C4.68555 22.0152 4.83636 22.1553 5.16626 22.1553H5.41604L6.2408 21.3102C7.03256 20.4989 7.06555 20.4603 7.06555 20.2719C7.06555 20.1222 7.03256 20.0449 6.92417 19.9339C6.78278 19.7938 6.56599 19.7214 6.42931 19.7745Z" fill="#A6A6A6" fill-opacity="0.3" stroke="#A6A6A6" stroke-opacity="0.3" stroke-width="0.8"/>
<path d="M19.8307 19.818C19.7506 19.8614 19.6469 19.9677 19.6045 20.0594C19.4631 20.3685 19.5196 20.4651 20.3774 21.344L21.1597 22.1553H21.4661C21.7583 22.1553 21.7818 22.1456 21.8572 22.0152C21.8996 21.938 21.9373 21.7931 21.9373 21.6917C21.9373 21.5227 21.8902 21.4599 21.1503 20.692C20.4057 19.9242 20.1889 19.7407 20.0428 19.7407C20.0098 19.7407 19.9155 19.7793 19.8307 19.818Z" fill="#A6A6A6" fill-opacity="0.3" stroke="#A6A6A6" stroke-opacity="0.3" stroke-width="0.8"/>
</svg>
