<svg width="42" height="42" viewBox="0 0 42 42" fill="none" xmlns="http://www.w3.org/2000/svg">
<g clip-path="url(#clip0_1997_6275)">
<path d="M30.194 1.71862C30.0634 5.05154 26.2238 19.1123 22.3581 12.7068C22.2014 9.37392 26.7984 -4.84307 30.194 1.71862Z" fill="#F5B3A3"/>
<path d="M19.8246 29.3454C19.694 32.6783 15.8544 46.739 11.9888 40.3336C11.832 37.0007 16.4291 22.7576 19.8246 29.3454Z" fill="#F5B3A3"/>
<path d="M1.72393 11.9517C5.06722 12.0819 19.1717 15.9095 12.7463 19.7632C9.40304 19.9194 -4.85816 15.3367 1.72393 11.9517Z" fill="#F5B3A3"/>
<path d="M29.4365 22.2891C33.2761 23.1483 43.1492 24.2159 41.8955 29.4496C39.2836 32.0795 22.0709 25.0491 29.4365 22.2891Z" fill="#F5B3A3"/>
</g>
<defs>
<clipPath id="clip0_1997_6275">
<rect width="42" height="42" fill="white"/>
</clipPath>
</defs>
</svg>
