<svg width="85" height="85" viewBox="0 0 85 85" fill="none" xmlns="http://www.w3.org/2000/svg">
<g clip-path="url(#clip0_1997_6253)">
<path d="M51.1735 51.1735C56.1956 46.1513 56.1956 38.0088 51.1735 32.9867C46.1513 27.9645 38.0088 27.9645 32.9867 32.9867C27.9646 38.0088 27.9646 46.1513 32.9867 51.1735C38.0088 56.1956 46.1513 56.1956 51.1735 51.1735Z" fill="#EBE6FF"/>
<path d="M41.4201 34.23C41.3001 31.43 41.2301 28.63 41.1801 25.83C41.1101 23.03 41.1201 20.23 41.1001 17.43C41.0601 14.63 41.1301 11.83 41.1401 9.03003C41.2101 6.23003 41.2701 3.43003 41.4201 0.630031C41.4401 0.260031 41.7601 -0.0199686 42.1201 3.13546e-05C42.4601 0.0200314 42.7301 0.290031 42.7501 0.630031C42.9101 3.43003 42.9701 6.23003 43.0301 9.03003C43.0301 11.83 43.1101 14.63 43.0701 17.43C43.0401 20.23 43.0601 23.03 42.9901 25.83C42.9401 28.63 42.8701 31.43 42.7501 34.23C42.7301 34.6 42.4201 34.88 42.0601 34.87C41.7101 34.86 41.4401 34.57 41.4201 34.23Z" fill="#A4BEF3"/>
<path d="M36.0601 37.0001C34.0001 35.1101 31.9701 33.1701 29.9501 31.2301C27.9201 29.3001 25.9501 27.3101 23.9501 25.3501C21.9401 23.4001 20.0101 21.3701 18.0401 19.3801C16.1101 17.3501 14.1701 15.3301 12.3001 13.2401C12.0501 12.9701 12.0801 12.5401 12.3501 12.3001C12.6101 12.0701 12.9901 12.0801 13.2401 12.3001C15.3301 14.1701 17.3501 16.1101 19.3801 18.0401C21.3701 20.0101 23.3901 21.9501 25.3501 23.9501C27.3101 25.9501 29.3001 27.9201 31.2301 29.9501C33.1801 31.9601 35.1101 33.9901 37.0001 36.0601C37.2501 36.3301 37.2301 36.7501 36.9601 37.0001C36.7001 37.2401 36.3101 37.2301 36.0601 37.0001Z" fill="#A4BEF3"/>
<path d="M34.23 42.7501C31.43 42.8701 28.63 42.9401 25.83 42.9901C23.03 43.0601 20.23 43.0501 17.43 43.0701C14.63 43.1101 11.83 43.0401 9.03003 43.0301C6.23003 42.9601 3.43003 42.9001 0.630031 42.7501C0.260031 42.7301 -0.0199686 42.4101 3.13546e-05 42.0501C0.0200314 41.7101 0.290031 41.4401 0.630031 41.4201C3.43003 41.2601 6.23003 41.2001 9.03003 41.1401C11.83 41.1401 14.63 41.0601 17.43 41.1001C20.23 41.1301 23.03 41.1101 25.83 41.1801C28.63 41.2301 31.43 41.3001 34.23 41.4201C34.6 41.4401 34.88 41.7501 34.87 42.1101C34.86 42.4601 34.57 42.7301 34.23 42.7501Z" fill="#A4BEF3"/>
<path d="M37.0001 48.1098C35.1101 50.1698 33.1701 52.1998 31.2301 54.2198C29.3001 56.2498 27.3101 58.2198 25.3501 60.2198C23.4001 62.2298 21.3701 64.1598 19.3801 66.1298C17.3501 68.0598 15.3301 69.9998 13.2401 71.8698C12.9701 72.1198 12.5401 72.0898 12.3001 71.8198C12.0701 71.5598 12.0801 71.1798 12.3001 70.9298C14.1701 68.8398 16.1101 66.8198 18.0401 64.7898C20.0101 62.7998 21.9501 60.7798 23.9501 58.8198C25.9501 56.8598 27.9201 54.8698 29.9501 52.9398C31.9601 50.9898 33.9901 49.0598 36.0601 47.1698C36.3301 46.9198 36.7501 46.9398 37.0001 47.2098C37.2401 47.4698 37.2301 47.8598 37.0001 48.1098Z" fill="#A4BEF3"/>
<path d="M42.7501 49.9401C42.8701 52.7401 42.9401 55.5401 42.9901 58.3401C43.0601 61.1401 43.0501 63.9401 43.0701 66.7401C43.1101 69.5401 43.0401 72.3401 43.0301 75.1401C42.9601 77.9401 42.9001 80.7401 42.7501 83.5401C42.7301 83.9101 42.4101 84.1901 42.0501 84.1701C41.7101 84.1501 41.4401 83.8801 41.4201 83.5401C41.2601 80.7401 41.2001 77.9401 41.1401 75.1401C41.1401 72.3401 41.0601 69.5401 41.1001 66.7401C41.1301 63.9401 41.1101 61.1401 41.1801 58.3401C41.2301 55.5401 41.3001 52.7401 41.4201 49.9401C41.4401 49.5701 41.7501 49.2901 42.1101 49.3001C42.4601 49.3101 42.7301 49.6001 42.7501 49.9401Z" fill="#A4BEF3"/>
<path d="M48.11 47.1699C50.17 49.0599 52.2 50.9999 54.22 52.9399C56.25 54.8699 58.22 56.8599 60.22 58.8199C62.23 60.7699 64.16 62.7999 66.13 64.7899C68.06 66.8199 70 68.8399 71.87 70.9299C72.12 71.1999 72.09 71.6299 71.82 71.8699C71.56 72.0999 71.18 72.0899 70.93 71.8699C68.84 69.9999 66.82 68.0599 64.79 66.1299C62.8 64.1599 60.78 62.2199 58.82 60.2199C56.86 58.2199 54.87 56.2499 52.94 54.2199C50.99 52.2099 49.06 50.1799 47.17 48.1099C46.92 47.8399 46.94 47.4199 47.21 47.1699C47.47 46.9299 47.86 46.9399 48.11 47.1699Z" fill="#A4BEF3"/>
<path d="M49.9401 41.4201C52.7401 41.3001 55.5401 41.2301 58.3401 41.1801C61.1401 41.1101 63.9401 41.1201 66.7401 41.1001C69.5401 41.0601 72.3401 41.1301 75.1401 41.1401C77.9401 41.2101 80.7401 41.2701 83.5401 41.4201C83.9101 41.4401 84.1901 41.7601 84.1701 42.1201C84.1501 42.4601 83.8801 42.7301 83.5401 42.7501C80.7401 42.9101 77.9401 42.9701 75.1401 43.0301C72.3401 43.0301 69.5401 43.1101 66.7401 43.0701C63.9401 43.0401 61.1401 43.0601 58.3401 42.9901C55.5401 42.9401 52.7401 42.8701 49.9401 42.7501C49.5701 42.7301 49.2901 42.4201 49.3001 42.0601C49.3101 41.7101 49.6001 41.4401 49.9401 41.4201Z" fill="#A4BEF3"/>
<path d="M47.1699 36.0601C49.0599 34.0001 50.9999 31.9701 52.9399 29.9501C54.8699 27.9201 56.8599 25.9501 58.8199 23.9501C60.7699 21.9401 62.7999 20.0101 64.7899 18.0401C66.8199 16.1101 68.8399 14.1701 70.9299 12.3001C71.1999 12.0501 71.6299 12.0801 71.8699 12.3501C72.0999 12.6101 72.0899 12.9901 71.8699 13.2401C69.9999 15.3301 68.0599 17.3501 66.1299 19.3801C64.1599 21.3701 62.2199 23.3901 60.2199 25.3501C58.2199 27.3101 56.2499 29.3001 54.2199 31.2301C52.2099 33.1801 50.1799 35.1101 48.1099 37.0001C47.8399 37.2501 47.4199 37.2301 47.1699 36.9601C46.9299 36.7001 46.9399 36.3101 47.1699 36.0601Z" fill="#A4BEF3"/>
<path d="M41.4201 34.23C41.3001 31.43 41.2301 28.63 41.1801 25.83C41.1101 23.03 41.1201 20.23 41.1001 17.43C41.0601 14.63 41.1301 11.83 41.1401 9.03003C41.2101 6.23003 41.2701 3.43003 41.4201 0.630031C41.4401 0.260031 41.7601 -0.0199686 42.1201 3.13546e-05C42.4601 0.0200314 42.7301 0.290031 42.7501 0.630031C42.9101 3.43003 42.9701 6.23003 43.0301 9.03003C43.0301 11.83 43.1101 14.63 43.0701 17.43C43.0401 20.23 43.0601 23.03 42.9901 25.83C42.9401 28.63 42.8701 31.43 42.7501 34.23C42.7301 34.6 42.4201 34.88 42.0601 34.87C41.7101 34.86 41.4401 34.57 41.4201 34.23Z" fill="#A4BEF3"/>
<path d="M39.9601 38.6998C39.2501 37.2898 38.5801 35.8598 37.9301 34.4298C37.2601 32.9998 36.6701 31.5398 36.0401 30.0998C35.4101 28.6598 34.8401 27.1898 34.2701 25.7198C33.7301 24.2398 33.1801 22.7598 32.7201 21.2498C32.6101 20.8998 32.8101 20.5198 33.1701 20.4198C33.4801 20.3298 33.8101 20.4698 33.9501 20.7398C34.7001 22.1298 35.3501 23.5698 36.0201 24.9998C36.6601 26.4398 37.2901 27.8798 37.8601 29.3498C38.4401 30.8198 39.0501 32.2598 39.5901 33.7498C40.1501 35.2198 40.6901 36.6998 41.1801 38.2098C41.2901 38.5598 41.1001 38.9398 40.7501 39.0498C40.4301 39.1498 40.0901 39.0098 39.9501 38.7198L39.9601 38.6998Z" fill="#A4BEF3"/>
<path d="M39.9601 38.6998C39.2501 37.2898 38.5801 35.8598 37.9301 34.4298C37.2601 32.9998 36.6701 31.5398 36.0401 30.0998C35.4101 28.6598 34.8401 27.1898 34.2701 25.7198C33.7301 24.2398 33.1801 22.7598 32.7201 21.2498C32.6101 20.8998 32.8101 20.5198 33.1701 20.4198C33.4801 20.3298 33.8101 20.4698 33.9501 20.7398C34.7001 22.1298 35.3501 23.5698 36.0201 24.9998C36.6601 26.4398 37.2901 27.8798 37.8601 29.3498C38.4401 30.8198 39.0501 32.2598 39.5901 33.7498C40.1501 35.2198 40.6901 36.6998 41.1801 38.2098C41.2901 38.5598 41.1001 38.9398 40.7501 39.0498C40.4301 39.1498 40.0901 39.0098 39.9501 38.7198L39.9601 38.6998Z" fill="#A4BEF3"/>
<path d="M38.1901 41.19C36.6901 40.7 35.2101 40.16 33.7301 39.6C32.2501 39.06 30.8001 38.45 29.3301 37.87C27.8601 37.3 26.4201 36.66 24.9801 36.03C23.5501 35.37 22.1201 34.71 20.7201 33.96C20.3901 33.79 20.2701 33.38 20.4501 33.05C20.6001 32.76 20.9301 32.64 21.2301 32.73C22.7401 33.19 24.2201 33.74 25.7001 34.28C27.1701 34.85 28.6401 35.42 30.0801 36.05C31.5201 36.68 32.9901 37.27 34.4101 37.94C35.8501 38.59 37.2801 39.25 38.6801 39.97C39.0101 40.14 39.1401 40.54 38.9701 40.87C38.8201 41.17 38.4701 41.3 38.1701 41.2L38.1901 41.19Z" fill="#A4BEF3"/>
<path d="M38.7 44.2102C37.29 44.9202 35.86 45.5902 34.43 46.2402C33 46.9102 31.54 47.5002 30.1 48.1302C28.66 48.7602 27.19 49.3302 25.72 49.9002C24.24 50.4402 22.76 50.9902 21.25 51.4502C20.9 51.5602 20.52 51.3602 20.42 51.0002C20.33 50.6902 20.47 50.3602 20.74 50.2202C22.13 49.4702 23.57 48.8202 25 48.1502C26.44 47.5102 27.88 46.8802 29.35 46.3102C30.82 45.7302 32.26 45.1202 33.75 44.5802C35.22 44.0202 36.7 43.4802 38.21 42.9902C38.56 42.8802 38.94 43.0702 39.05 43.4202C39.15 43.7402 39.01 44.0802 38.72 44.2202L38.7 44.2102Z" fill="#A4BEF3"/>
<path d="M41.19 45.9802C40.7 47.4802 40.16 48.9602 39.6 50.4402C39.06 51.9202 38.45 53.3702 37.87 54.8402C37.3 56.3102 36.66 57.7502 36.03 59.1902C35.37 60.6202 34.71 62.0502 33.96 63.4502C33.79 63.7802 33.38 63.9002 33.05 63.7202C32.76 63.5702 32.64 63.2402 32.73 62.9402C33.19 61.4302 33.74 59.9502 34.28 58.4702C34.85 57.0002 35.42 55.5302 36.05 54.0902C36.68 52.6502 37.27 51.1802 37.94 49.7602C38.59 48.3202 39.25 46.8902 39.97 45.4902C40.14 45.1602 40.54 45.0302 40.87 45.2002C41.17 45.3502 41.3 45.7002 41.2 46.0002L41.19 45.9802Z" fill="#A4BEF3"/>
<path d="M44.2099 45.47C44.9199 46.88 45.5899 48.31 46.2399 49.74C46.9099 51.17 47.4999 52.63 48.1299 54.07C48.7599 55.51 49.3299 56.98 49.8999 58.45C50.4399 59.93 50.9899 61.41 51.4499 62.92C51.5599 63.27 51.3599 63.65 50.9999 63.75C50.6899 63.84 50.3599 63.7 50.2199 63.43C49.4699 62.04 48.8199 60.6 48.1499 59.17C47.5099 57.73 46.8799 56.29 46.3099 54.82C45.7299 53.35 45.1199 51.91 44.5799 50.42C44.0199 48.95 43.4799 47.47 42.9899 45.96C42.8799 45.61 43.0699 45.23 43.4199 45.12C43.7399 45.02 44.0799 45.16 44.2199 45.45L44.2099 45.47Z" fill="#A4BEF3"/>
<path d="M45.9799 42.9803C47.4799 43.4703 48.9599 44.0103 50.4399 44.5703C51.9199 45.1103 53.3699 45.7203 54.8399 46.3003C56.3099 46.8703 57.7499 47.5103 59.1899 48.1403C60.6199 48.8003 62.0499 49.4603 63.4499 50.2103C63.7799 50.3803 63.8999 50.7903 63.7199 51.1203C63.5699 51.4103 63.2399 51.5303 62.9399 51.4403C61.4299 50.9803 59.9499 50.4303 58.4699 49.8903C56.9999 49.3203 55.5299 48.7503 54.0899 48.1203C52.6499 47.4903 51.1799 46.9003 49.7599 46.2303C48.3199 45.5803 46.8899 44.9203 45.4899 44.2003C45.1599 44.0303 45.0299 43.6303 45.1999 43.3003C45.3499 43.0003 45.6999 42.8703 45.9999 42.9703L45.9799 42.9803Z" fill="#A4BEF3"/>
<path d="M45.47 39.9601C46.88 39.2501 48.31 38.5801 49.74 37.9301C51.17 37.2601 52.63 36.6701 54.07 36.0401C55.51 35.4101 56.98 34.8401 58.45 34.2701C59.93 33.7301 61.41 33.1801 62.92 32.7201C63.27 32.6101 63.65 32.8101 63.75 33.1701C63.84 33.4801 63.7 33.8101 63.43 33.9501C62.04 34.7001 60.6 35.3501 59.17 36.0201C57.73 36.6601 56.29 37.2901 54.82 37.8601C53.35 38.4401 51.91 39.0501 50.42 39.5901C48.95 40.1501 47.47 40.6901 45.96 41.1801C45.61 41.2901 45.23 41.1001 45.12 40.7501C45.02 40.4301 45.16 40.0901 45.45 39.9501L45.47 39.9601Z" fill="#A4BEF3"/>
<path d="M42.98 38.1898C43.47 36.6898 44.01 35.2098 44.57 33.7298C45.11 32.2498 45.72 30.7998 46.3 29.3298C46.87 27.8598 47.51 26.4198 48.14 24.9798C48.8 23.5498 49.46 22.1198 50.21 20.7198C50.38 20.3898 50.79 20.2698 51.12 20.4498C51.41 20.5998 51.53 20.9298 51.44 21.2298C50.98 22.7398 50.43 24.2198 49.89 25.6998C49.32 27.1698 48.75 28.6398 48.12 30.0798C47.49 31.5198 46.9 32.9898 46.23 34.4098C45.58 35.8498 44.92 37.2798 44.2 38.6798C44.03 39.0098 43.63 39.1398 43.3 38.9698C43 38.8198 42.87 38.4698 42.97 38.1698L42.98 38.1898Z" fill="#A4BEF3"/>
</g>
<defs>
<clipPath id="clip0_1997_6253">
<rect width="84.17" height="84.17" fill="white"/>
</clipPath>
</defs>
</svg>
