<svg width="24" height="24" viewBox="0 0 24 24" fill="none" xmlns="http://www.w3.org/2000/svg">
<mask id="mask0_1992_4042" style="mask-type:alpha" maskUnits="userSpaceOnUse" x="0" y="0" width="24" height="24">
<rect width="23.3549" height="24" fill="#D9D9D9"/>
</mask>
<g mask="url(#mask0_1992_4042)">
<path d="M11.6772 21C11.142 21 10.6838 20.8042 10.3027 20.4125C9.92153 20.0208 9.73096 19.55 9.73096 19C9.73096 18.45 9.92153 17.9792 10.3027 17.5875C10.6838 17.1958 11.142 17 11.6772 17C12.2124 17 12.6706 17.1958 13.0517 17.5875C13.4329 17.9792 13.6234 18.45 13.6234 19C13.6234 19.55 13.4329 20.0208 13.0517 20.4125C12.6706 20.8042 12.2124 21 11.6772 21ZM9.73096 15V3H13.6234V15H9.73096Z" fill="#583933"/>
</g>
</svg>
