<svg width="24" height="24" viewBox="0 0 24 24" fill="none" xmlns="http://www.w3.org/2000/svg">
<path d="M17.564 8.67188C16.289 7.66406 14.5406 7.37813 12.5062 7.85156L12.8812 6.1125V6.10781C13.2234 4.42031 12.1546 2.77031 10.4718 2.39531L8.5687 1.9875C8.31558 1.93125 8.06714 2.09531 8.01089 2.34844L7.60308 4.25156V4.25625C7.32651 5.60625 7.96401 6.98438 9.1687 7.65C8.11401 7.72969 7.18589 8.07188 6.4312 8.67656C5.0062 9.80625 4.22339 11.7797 4.22339 14.2313C4.22808 15.525 4.48589 16.8094 4.98745 18C5.51714 19.2609 6.28589 20.3016 7.19995 21C8.47495 21.975 9.98901 22.2656 11.5875 21.8344C11.6953 21.8109 11.8078 21.8016 11.9156 21.7969H12.0796C12.1921 21.7969 12.3 21.8109 12.4078 21.8344C12.8718 21.9609 13.35 22.0266 13.8281 22.0266C14.8968 22.0266 15.9046 21.6797 16.7953 21C17.7093 20.3016 18.4734 19.2656 19.0078 18C19.5093 16.8047 19.7671 15.525 19.7718 14.2313C19.7718 11.775 18.989 9.80156 17.564 8.67188ZM8.83589 6.08906C8.52183 5.60156 8.40933 5.01094 8.52651 4.44375L8.83589 3.00469L10.275 3.31406C11.4562 3.57656 12.2062 4.73438 11.9671 5.92031L11.6578 7.35938L10.2187 7.05C9.64683 6.92344 9.14995 6.58125 8.83589 6.08906ZM16.2281 20.25C15.1734 21.0563 13.9687 21.2766 12.6421 20.9156C12.6328 20.9109 12.6234 20.9156 12.6093 20.9156C12.4359 20.8781 12.2578 20.8594 12.0796 20.8594H11.9156C11.7375 20.8594 11.5593 20.8781 11.3859 20.9156C11.3765 20.9156 11.3671 20.9156 11.3531 20.9203C10.0265 21.2813 8.81714 21.0563 7.76714 20.2547C6.2062 19.0641 5.16089 16.6406 5.16089 14.2313C5.16089 12.0703 5.82183 10.3594 7.01714 9.4125C8.07651 8.57344 9.51089 8.35781 11.2828 8.77031C11.5171 8.83594 11.7562 8.86875 12 8.86875C12.2437 8.86875 12.4828 8.83594 12.7171 8.77031C14.489 8.35781 15.9234 8.57344 16.9828 9.4125C18.1781 10.3594 18.839 12.0703 18.839 14.2313C18.8343 16.6406 17.789 19.0594 16.2281 20.25Z" fill="#583933"/>
<path d="M10.5657 10.1204C9.34692 10.1204 8.4188 10.4719 7.80474 11.1704C7.22817 11.8219 6.93286 12.7829 6.93286 14.025C6.93286 14.2829 7.1438 14.4938 7.40161 14.4938C7.65942 14.4938 7.87036 14.2829 7.87036 14.025C7.87036 11.9719 8.70005 11.0579 10.5657 11.0579C10.8235 11.0579 11.0344 10.8469 11.0344 10.5891C11.0344 10.3313 10.8235 10.1204 10.5657 10.1204Z" fill="#583933"/>
</svg>
