<svg width="24" height="24" viewBox="0 0 24 24" fill="none" xmlns="http://www.w3.org/2000/svg">
<mask id="mask0_1992_4066" style="mask-type:alpha" maskUnits="userSpaceOnUse" x="0" y="0" width="24" height="24">
<rect width="23.3549" height="24" fill="#D9D9D9"/>
</mask>
<g mask="url(#mask0_1992_4066)">
<path d="M6.81174 23L9.53649 8.9L7.78487 9.6V13H5.83862V8.3L10.7529 6.15C10.98 6.05 11.2192 5.99167 11.4706 5.975C11.722 5.95833 11.9612 5.99167 12.1882 6.075C12.4153 6.15833 12.6302 6.275 12.8329 6.425C13.0357 6.575 13.2019 6.76667 13.3317 7L14.3048 8.6C14.7265 9.3 15.2982 9.875 16.0199 10.325C16.7416 10.775 17.5647 11 18.4892 11V13C17.3539 13 16.3402 12.7583 15.4482 12.275C14.5562 11.7917 13.7939 11.175 13.1614 10.425L12.5532 13.5L14.5967 15.5V23H12.6505V16.5L10.6069 14.9L8.8553 23H6.81174ZM13.137 5.5C12.6018 5.5 12.1436 5.30417 11.7625 4.9125C11.3814 4.52083 11.1908 4.05 11.1908 3.5C11.1908 2.95 11.3814 2.47917 11.7625 2.0875C12.1436 1.69583 12.6018 1.5 13.137 1.5C13.6723 1.5 14.1304 1.69583 14.5116 2.0875C14.8927 2.47917 15.0833 2.95 15.0833 3.5C15.0833 4.05 14.8927 4.52083 14.5116 4.9125C14.1304 5.30417 13.6723 5.5 13.137 5.5Z" fill="#583933"/>
</g>
</svg>
