<svg width="18" height="14" viewBox="0 0 18 14" fill="none" xmlns="http://www.w3.org/2000/svg">
<path d="M0.292787 7.37629C0.105316 7.18876 3.03115e-07 6.93445 2.91524e-07 6.66929C2.79933e-07 6.40412 0.105316 6.14982 0.292787 5.96229L5.94979 0.305288C6.04203 0.209778 6.15238 0.133596 6.27438 0.0811866C6.39639 0.0287776 6.52761 0.00119129 6.66039 3.74652e-05C6.79316 -0.00111636 6.92484 0.0241856 7.04774 0.0744665C7.17064 0.124747 7.28229 0.199 7.37618 0.292893C7.47007 0.386786 7.54433 0.498437 7.59461 0.621334C7.64489 0.74423 7.67019 0.87591 7.66904 1.00869C7.66788 1.14147 7.6403 1.27269 7.58789 1.39469C7.53548 1.5167 7.4593 1.62704 7.36379 1.71929L3.41379 5.66929L16.6568 5.66929C16.922 5.66929 17.1764 5.77464 17.3639 5.96218C17.5514 6.14972 17.6568 6.40407 17.6568 6.66929C17.6568 6.9345 17.5514 7.18886 17.3639 7.37639C17.1764 7.56393 16.922 7.66929 16.6568 7.66929L3.41379 7.66929L7.36379 11.6193C7.54594 11.8079 7.64674 12.0605 7.64446 12.3227C7.64218 12.5849 7.53701 12.8357 7.35161 13.0211C7.1662 13.2065 6.91538 13.3117 6.65319 13.314C6.39099 13.3162 6.13839 13.2154 5.94979 13.0333L0.292787 7.37629Z" fill="white"/>
</svg>
