<svg width="24" height="24" viewBox="0 0 24 24" fill="none" xmlns="http://www.w3.org/2000/svg">
<path d="M20.3635 12.7073C20.5509 12.5198 20.6563 12.2655 20.6563 12.0003C20.6563 11.7352 20.5509 11.4809 20.3635 11.2933L14.7065 5.63634C14.6142 5.54083 14.5039 5.46465 14.3819 5.41224C14.2599 5.35983 14.1286 5.33225 13.9959 5.33109C13.8631 5.32994 13.7314 5.35524 13.6085 5.40552C13.4856 5.4558 13.374 5.53006 13.2801 5.62395C13.1862 5.71784 13.1119 5.82949 13.0616 5.95239C13.0114 6.07529 12.9861 6.20697 12.9872 6.33974C12.9884 6.47252 13.016 6.60374 13.0684 6.72575C13.1208 6.84775 13.197 6.9581 13.2925 7.05034L17.2425 11.0003L3.99947 11.0003C3.73425 11.0003 3.4799 11.1057 3.29236 11.2932C3.10482 11.4808 2.99947 11.7351 2.99947 12.0003C2.99947 12.2656 3.10482 12.5199 3.29236 12.7074C3.47989 12.895 3.73425 13.0003 3.99947 13.0003L17.2425 13.0003L13.2925 16.9503C13.1103 17.1389 13.0095 17.3915 13.0118 17.6537C13.0141 17.9159 13.1192 18.1668 13.3046 18.3522C13.4901 18.5376 13.7409 18.6427 14.0031 18.645C14.2653 18.6473 14.5179 18.5465 14.7065 18.3643L20.3635 12.7073Z" fill="white"/>
</svg>
