<svg width="17" height="18" viewBox="0 0 17 18" fill="none" xmlns="http://www.w3.org/2000/svg">
<path d="M15.8101 16.5L12.25 12.8809M12.25 12.8809C12.859 12.2618 13.342 11.5269 13.6716 10.718C14.0012 9.90917 14.1708 9.04225 14.1708 8.16676C14.1708 7.29127 14.0012 6.42435 13.6716 5.6155C13.342 4.80665 12.859 4.07172 12.25 3.45265C11.641 2.83358 10.9181 2.34251 10.1224 2.00748C9.32675 1.67244 8.47397 1.5 7.61275 1.5C6.75154 1.5 5.89875 1.67244 5.10309 2.00748C4.30743 2.34251 3.58447 2.83358 2.9755 3.45265C1.74562 4.70291 1.05469 6.39863 1.05469 8.16676C1.05469 9.9349 1.74562 11.6306 2.9755 12.8809C4.20538 14.1311 5.87345 14.8335 7.61275 14.8335C9.35206 14.8335 11.0201 14.1311 12.25 12.8809Z" stroke="#7F7F7F" stroke-opacity="0.5" stroke-width="2" stroke-linecap="round" stroke-linejoin="round"/>
</svg>
